/* XPM */
static char *c8b0141d42494eedc84e7b2022a48fe0xpoPCqXhuxiDdMlB[] = {
/* columns rows colors chars-per-pixel */
"32 32 16 1 ",
"  c None",
". c #303000",
"X c #306000",
"o c #606000",
"O c #408000",
"+ c #808000",
"@ c #A0A000",
"# c #C0C000",
"$ c #E0E000",
"% c yellow",
"& c #C0C060",
"* c #E0E070",
"= c #C0C090",
"- c #FFFF80",
"; c #E0E0A8",
": c #FFFFC0",
/* pixels */
"                                ",
"                                ",
"                                ",
"                                ",
"                                ",
"                                ",
"                    :;          ",
"                   ;:**.        ",
"                   *:;&.        ",
"                   &-*=.        ",
"                   *:;&.        ",
"                  &;-*=.        ",
"        $$$$$$    =*:;&.        ",
"      $########$  &:**..        ",
"    $###@++@#@##$&*-;*..        ",
"   $#++......+@@#%=:=%%$$$      ",
"  +++...    ...+@$%=%#####$$    ",
"  .....       ..+$%$#@+@+@##$   ",
"               +%%%#+o....+@#$  ",
"              +%%%$@o..  ..+@#  ",
"             +%%%$@+o.    ..+#$ ",
"            +%%%$#+o..     ..#$ ",
"           +%%$##@+o.       .#$ ",
"          +%%$#@++o..        +. ",
"        +%%%$#@+oo..         +. ",
"       @#%%#@+oo...          .. ",
"       $@@@ooo...               ",
"      .XOoo....                 ",
"      .......                   ",
"                                ",
"                                ",
"                                "
};
