/* XPM */
static char *_9b76258ebd949b7e1e811210900cc3bAwBn5f4sc7PzRkCA[] = {
/* columns rows colors chars-per-pixel */
"32 32 21 1 ",
"  c None",
". c black",
"X c #003018",
"o c #600000",
"O c #204000",
"+ c #306000",
"@ c #004020",
"# c #006030",
"$ c #800000",
"% c #A00000",
"& c #C00000",
"* c #408000",
"= c #60C000",
"- c #008040",
"; c #00A050",
": c #00C060",
"> c #A0A0A0",
", c gray69",
"< c #C0C0C0",
"1 c gray88",
"2 c white",
/* pixels */
"@@                     @@@@@@@@ ",
" @@@@         2   22@@@@oooooo  ",
"  oo@@@@@@@@@2     @@oooo%%%%   ",
"   oooo$$$@@o@    @@@@@%%%$$    ",
"   oo%%@@@oo$@    @%ooo@@$$$    ",
"   %%$@o$$;;-$@   @o%oooo@$$    ",
"  $$$@o$;;#--;@   @o%$$ooo@$    ",
"  $@@o$;#--#-#--  @oo%$$$oo@    ",
"  @ooo$;-#####-#- @oo%$$$$oo@   ",
"   o$$;-;#1++###-# @oo%$$$      ",
"    1$-;;#1o***##--@oo%%$       ",
"    >1-;-1<oo@++@#-@ooo%        ",
"     <1;;<: o@***@#;---$        ",
"     >:-;-:#;#@++@###;;--       ",
"      -:-;:&@@#=**@@####;--     ",
"      -&:;:&@#@*+O##@#@##-;-    ",
"      @;&:;:;@@=**@@-@#@###-    ",
"     #@-;;::;@#*++O@##@@  #--   ",
"    ##@X--;:-@#=***@@#@  2#---  ",
"  ###@XX2#-;:#@*++O@##-....2-2  ",
" @#@@XX   #-;##=***@#@##...2..2 ",
" 2 @X2     # #@@++O@@-#@-#..##  ",
"2  2 2      ###@=**@#-#-@@###.. ",
"   2      ##-#@@OOOO@@-##@@#... ",
"          #--@@XX*++#X@-#-....  ",
"         #-##@XX..OO@@#--#...   ",
"         #-##@X......X@##-@..   ",
"         --#@XX.......@@--@...  ",
"        @##@@X........X#@@@@... ",
"      @@@##@X.....  ...@#@-@@.. ",
"     ,@.,@.@X,..   ...,@.X,.X,. ",
"     ..........      .........  "
};
